<?xml version="1.0" encoding="UTF-8" ?>
<!DOCTYPE svg PUBLIC "-//W3C//DTD SVG 1.1//EN" "http://www.w3.org/Graphics/SVG/1.1/DTD/svg11.dtd">
<svg width="148pt" height="107pt" viewBox="0 0 148 107" version="1.1" xmlns="http://www.w3.org/2000/svg">
<g id="#fefefeff">
<path fill="#fefefe" opacity="1.00" d=" M 7.12 7.41 C 43.48 7.45 79.83 7.41 116.19 7.43 C 116.23 35.30 116.17 63.18 116.22 91.05 C 116.17 94.64 117.93 97.91 120.16 100.62 C 85.76 100.56 51.35 100.63 16.95 100.58 C 11.50 100.62 6.65 95.52 7.12 90.05 C 7.12 62.51 7.12 34.96 7.12 7.41 M 16.74 16.97 C 16.50 22.60 16.67 28.25 16.70 33.89 C 18.09 33.89 19.48 33.89 20.87 33.87 C 20.95 29.30 21.00 24.72 20.75 20.15 C 23.47 24.40 26.29 28.60 29.33 32.62 C 30.77 34.69 33.64 33.64 35.76 33.78 C 36.00 27.90 35.86 22.02 35.86 16.15 C 34.46 16.11 33.06 16.09 31.66 16.09 C 31.53 20.34 31.61 24.60 31.61 28.86 C 28.86 24.60 26.27 20.10 22.83 16.37 C 20.92 16.22 18.13 15.42 16.74 16.97 M 41.27 16.11 C 40.67 22.00 40.68 27.98 41.26 33.86 C 45.71 33.86 50.17 33.79 54.62 33.94 C 54.63 33.17 54.65 31.64 54.66 30.87 C 51.68 31.08 48.69 31.10 45.71 30.92 C 45.72 29.32 45.74 27.72 45.75 26.12 C 48.25 26.12 50.75 26.12 53.25 26.13 C 53.35 25.21 53.46 24.29 53.57 23.37 C 50.96 23.25 48.35 23.27 45.74 23.28 C 45.74 21.82 45.75 20.35 45.76 18.89 C 48.76 18.95 51.78 19.08 54.78 18.80 C 54.76 18.15 54.73 16.87 54.71 16.23 C 50.23 16.04 45.75 16.21 41.27 16.11 M 57.21 15.93 C 58.76 21.96 60.82 27.93 63.18 33.69 C 65.16 33.97 67.29 34.20 69.21 33.57 C 70.74 29.72 71.68 25.66 73.05 21.75 C 74.36 25.75 75.76 29.72 76.99 33.74 C 79.06 33.86 81.12 33.90 83.19 33.89 C 85.36 28.01 87.40 22.09 89.32 16.13 C 87.76 16.12 86.20 16.12 84.64 16.17 C 83.28 20.93 81.89 25.68 80.28 30.36 C 79.02 25.58 77.29 20.93 75.84 16.21 C 74.18 16.12 72.52 16.08 70.86 16.06 C 69.25 20.79 67.87 25.59 66.22 30.31 C 64.94 25.55 63.45 20.87 62.06 16.15 C 60.44 16.08 58.82 16.00 57.21 15.93 M 93.36 17.21 C 91.16 18.46 90.52 21.83 92.31 23.68 C 94.75 26.49 99.44 25.84 101.50 29.03 C 99.36 33.11 94.13 30.62 90.81 29.63 C 89.72 34.03 95.10 34.21 98.03 34.23 C 101.68 34.30 106.76 32.26 106.20 27.83 C 105.07 23.79 100.16 23.68 97.06 21.94 C 95.81 21.38 95.91 19.66 97.03 19.05 C 99.62 17.99 102.33 19.29 104.86 19.91 C 104.58 18.82 105.24 16.83 103.68 16.52 C 100.35 15.46 96.42 15.33 93.36 17.21 M 18.88 45.24 C 47.60 45.25 76.33 45.30 105.05 45.21 C 105.42 44.66 106.16 43.56 106.53 43.01 C 106.17 42.46 105.46 41.36 105.10 40.81 C 76.36 40.69 47.62 40.77 18.88 40.77 C 15.31 40.03 15.37 45.92 18.88 45.24 M 18.16 52.43 C 16.25 52.34 16.09 54.58 16.18 55.96 C 16.25 63.30 16.08 70.65 16.26 77.99 C 16.16 79.46 17.70 80.12 18.96 79.90 C 30.63 79.92 42.32 79.95 54.00 79.90 C 55.52 80.11 56.51 78.45 56.24 77.09 C 56.20 69.38 56.43 61.66 56.13 53.97 C 55.66 52.05 53.54 52.42 52.06 52.34 C 40.76 52.43 29.46 52.26 18.16 52.43 M 65.36 52.49 C 63.71 52.95 63.60 55.34 64.68 56.41 C 66.02 56.97 67.52 56.72 68.93 56.80 C 80.60 56.71 92.27 56.87 103.93 56.74 C 106.97 57.13 106.92 52.03 103.90 52.41 C 91.06 52.40 78.19 52.24 65.36 52.49 M 63.39 65.98 C 64.20 67.31 65.11 68.78 66.92 68.37 C 79.61 68.32 92.31 68.58 104.98 68.24 C 105.41 67.66 106.28 66.51 106.72 65.93 C 105.73 64.92 104.73 63.59 103.10 63.89 C 91.04 63.88 78.97 63.88 66.90 63.89 C 65.29 63.60 64.35 64.97 63.39 65.98 M 63.39 77.95 C 64.35 79.03 65.35 80.27 66.98 79.92 C 78.98 79.92 90.98 79.91 102.98 79.93 C 104.65 80.30 105.73 79.12 106.73 77.99 C 106.30 77.42 105.43 76.26 105.00 75.68 C 93.69 75.25 82.35 75.64 71.02 75.49 C 68.25 75.62 64.57 74.59 63.39 77.95 M 18.26 91.53 C 46.80 91.58 75.35 91.61 103.89 91.51 C 105.47 91.78 105.84 90.03 106.60 89.07 C 106.19 88.58 105.37 87.60 104.96 87.12 C 76.00 87.20 47.03 87.02 18.07 87.20 C 15.41 87.18 15.65 91.68 18.26 91.53 Z" />
<path fill="#fefefe" opacity="1.00" d=" M 120.60 17.39 C 123.50 17.41 126.40 17.41 129.31 17.37 C 128.75 19.20 128.38 21.08 128.45 23.00 C 128.54 44.57 128.39 66.14 128.53 87.71 C 128.31 90.37 132.80 90.68 132.81 88.01 C 133.02 65.99 132.80 43.95 132.91 21.93 C 132.69 19.59 134.65 17.18 137.09 17.42 C 139.40 17.41 141.06 19.78 140.79 21.98 C 140.80 44.67 140.80 67.36 140.80 90.06 C 141.15 95.80 135.84 101.12 130.07 100.59 C 124.74 100.35 120.28 95.37 120.61 90.05 C 120.58 65.83 120.61 41.61 120.60 17.39 Z" />
<path fill="#fefefe" opacity="1.00" d=" M 20.62 56.79 C 31.00 56.77 41.38 56.79 51.76 56.78 C 51.73 63.02 51.73 69.26 51.76 75.51 C 41.37 75.50 30.98 75.49 20.60 75.51 C 20.62 69.27 20.59 63.03 20.62 56.79 Z" />
</g>
<g id="#030303ff">
<path fill="#030303" opacity="1.00" d=" M 2.55 8.01 C 2.62 6.15 2.06 3.28 4.61 2.95 C 42.75 2.76 80.91 2.94 119.06 2.86 C 119.44 3.24 120.20 4.00 120.58 4.38 C 120.59 7.24 120.59 10.10 120.60 12.96 C 126.12 12.94 131.64 12.80 137.16 12.98 C 141.81 12.96 145.67 17.46 145.30 22.03 C 145.28 45.00 145.33 67.98 145.27 90.95 C 145.23 98.87 137.89 105.50 130.05 105.12 C 92.35 105.11 54.65 105.15 16.95 105.09 C 9.46 105.05 2.69 98.59 2.60 91.04 C 2.52 63.37 2.63 35.69 2.55 8.01 M 7.12 7.41 C 7.12 34.96 7.12 62.51 7.12 90.05 C 6.65 95.52 11.50 100.62 16.95 100.58 C 51.35 100.63 85.76 100.56 120.16 100.62 C 117.93 97.91 116.17 94.64 116.22 91.05 C 116.17 63.18 116.23 35.30 116.19 7.43 C 79.83 7.41 43.48 7.45 7.12 7.41 M 120.60 17.39 C 120.61 41.61 120.58 65.83 120.61 90.05 C 120.28 95.37 124.74 100.35 130.07 100.59 C 135.84 101.12 141.15 95.80 140.80 90.06 C 140.80 67.36 140.80 44.67 140.79 21.98 C 141.06 19.78 139.40 17.41 137.09 17.42 C 134.65 17.18 132.69 19.59 132.91 21.93 C 132.80 43.95 133.02 65.99 132.81 88.01 C 132.80 90.68 128.31 90.37 128.53 87.71 C 128.39 66.14 128.54 44.57 128.45 23.00 C 128.38 21.08 128.75 19.20 129.31 17.37 C 126.40 17.41 123.50 17.41 120.60 17.39 Z" />
<path fill="#030303" opacity="1.00" d=" M 16.74 16.97 C 18.13 15.42 20.92 16.22 22.83 16.37 C 26.27 20.10 28.86 24.60 31.61 28.86 C 31.61 24.60 31.53 20.34 31.66 16.09 C 33.06 16.09 34.46 16.11 35.86 16.15 C 35.86 22.02 36.00 27.90 35.76 33.78 C 33.64 33.64 30.77 34.69 29.33 32.62 C 26.29 28.60 23.47 24.40 20.75 20.15 C 21.00 24.72 20.95 29.30 20.87 33.87 C 19.48 33.89 18.09 33.89 16.70 33.89 C 16.67 28.25 16.50 22.60 16.74 16.97 Z" />
<path fill="#030303" opacity="1.00" d=" M 41.27 16.11 C 45.75 16.21 50.23 16.04 54.71 16.23 C 54.73 16.87 54.76 18.15 54.78 18.80 C 51.78 19.08 48.76 18.95 45.76 18.89 C 45.75 20.35 45.74 21.82 45.74 23.28 C 48.35 23.27 50.96 23.25 53.57 23.37 C 53.46 24.29 53.35 25.21 53.25 26.13 C 50.75 26.12 48.25 26.12 45.75 26.12 C 45.74 27.72 45.72 29.32 45.71 30.92 C 48.69 31.10 51.68 31.08 54.66 30.87 C 54.65 31.64 54.63 33.17 54.62 33.94 C 50.17 33.79 45.71 33.86 41.26 33.86 C 40.68 27.98 40.67 22.00 41.27 16.11 Z" />
<path fill="#030303" opacity="1.00" d=" M 57.21 15.93 C 58.82 16.00 60.44 16.08 62.06 16.15 C 63.45 20.87 64.94 25.55 66.22 30.31 C 67.87 25.59 69.25 20.79 70.86 16.06 C 72.52 16.08 74.18 16.12 75.84 16.21 C 77.29 20.93 79.02 25.58 80.28 30.36 C 81.89 25.68 83.28 20.93 84.64 16.17 C 86.20 16.12 87.76 16.12 89.32 16.13 C 87.40 22.09 85.36 28.01 83.19 33.89 C 81.12 33.90 79.06 33.86 76.99 33.74 C 75.76 29.72 74.36 25.75 73.05 21.75 C 71.68 25.66 70.74 29.72 69.21 33.57 C 67.29 34.20 65.16 33.97 63.18 33.69 C 60.82 27.93 58.76 21.96 57.21 15.93 Z" />
<path fill="#030303" opacity="1.00" d=" M 93.36 17.21 C 96.42 15.33 100.35 15.46 103.68 16.52 C 105.24 16.83 104.58 18.82 104.86 19.91 C 102.33 19.29 99.62 17.99 97.03 19.05 C 95.91 19.66 95.81 21.38 97.06 21.94 C 100.16 23.68 105.07 23.79 106.20 27.83 C 106.76 32.26 101.68 34.30 98.03 34.23 C 95.10 34.21 89.72 34.03 90.81 29.63 C 94.13 30.62 99.36 33.11 101.50 29.03 C 99.44 25.84 94.75 26.49 92.31 23.68 C 90.52 21.83 91.16 18.46 93.36 17.21 Z" />
<path fill="#030303" opacity="1.00" d=" M 18.88 45.24 C 15.37 45.92 15.31 40.03 18.88 40.77 C 47.62 40.77 76.36 40.69 105.10 40.81 C 105.46 41.36 106.17 42.46 106.53 43.01 C 106.16 43.56 105.42 44.66 105.05 45.21 C 76.33 45.30 47.60 45.25 18.88 45.24 Z" />
<path fill="#030303" opacity="1.00" d=" M 18.16 52.43 C 29.46 52.26 40.76 52.43 52.06 52.34 C 53.54 52.42 55.66 52.05 56.13 53.97 C 56.43 61.66 56.20 69.38 56.24 77.09 C 56.51 78.45 55.52 80.11 54.00 79.90 C 42.32 79.95 30.63 79.92 18.96 79.90 C 17.70 80.12 16.16 79.46 16.26 77.99 C 16.08 70.65 16.25 63.30 16.18 55.96 C 16.09 54.58 16.25 52.34 18.16 52.43 M 20.62 56.79 C 20.59 63.03 20.62 69.27 20.60 75.51 C 30.98 75.49 41.37 75.50 51.76 75.51 C 51.73 69.26 51.73 63.02 51.76 56.78 C 41.38 56.79 31.00 56.77 20.62 56.79 Z" />
<path fill="#030303" opacity="1.00" d=" M 65.36 52.49 C 78.19 52.24 91.06 52.40 103.90 52.41 C 106.92 52.03 106.97 57.13 103.93 56.74 C 92.27 56.87 80.60 56.71 68.93 56.80 C 67.52 56.72 66.02 56.97 64.68 56.41 C 63.60 55.34 63.71 52.95 65.36 52.49 Z" />
<path fill="#030303" opacity="1.00" d=" M 63.39 65.98 C 64.35 64.97 65.29 63.60 66.90 63.89 C 78.97 63.88 91.04 63.88 103.10 63.89 C 104.73 63.59 105.73 64.92 106.72 65.93 C 106.28 66.51 105.41 67.66 104.98 68.24 C 92.31 68.58 79.61 68.32 66.92 68.37 C 65.11 68.78 64.20 67.31 63.39 65.98 Z" />
<path fill="#030303" opacity="1.00" d=" M 63.39 77.95 C 64.57 74.59 68.25 75.62 71.02 75.49 C 82.35 75.64 93.69 75.25 105.00 75.68 C 105.43 76.26 106.30 77.42 106.73 77.99 C 105.73 79.12 104.65 80.30 102.98 79.93 C 90.98 79.91 78.98 79.92 66.98 79.92 C 65.35 80.27 64.35 79.03 63.39 77.95 Z" />
<path fill="#030303" opacity="1.00" d=" M 18.26 91.53 C 15.65 91.68 15.41 87.18 18.07 87.20 C 47.03 87.02 76.00 87.20 104.96 87.12 C 105.37 87.60 106.19 88.58 106.60 89.07 C 105.84 90.03 105.47 91.78 103.89 91.51 C 75.35 91.61 46.80 91.58 18.26 91.53 Z" />
</g>
</svg>
