<?xml version="1.0" encoding="UTF-8" ?>
<!DOCTYPE svg PUBLIC "-//W3C//DTD SVG 1.1//EN" "http://www.w3.org/Graphics/SVG/1.1/DTD/svg11.dtd">
<svg width="307pt" height="286pt" viewBox="0 0 307 286" version="1.1" xmlns="http://www.w3.org/2000/svg">
<g id="#f6f2efff">
</g>
<g id="#d4eadaff">
<path fill="#d4eada" opacity="1.00" d=" M 68.92 6.83 C 78.86 5.00 90.11 4.29 99.00 9.98 C 107.01 14.90 111.45 23.72 114.76 32.19 C 117.88 40.18 114.50 48.67 115.56 56.86 C 116.41 57.01 117.27 57.17 118.13 57.33 C 118.27 59.23 118.22 61.13 118.26 63.04 C 117.88 66.07 118.14 69.11 118.43 72.13 C 118.17 75.15 118.11 78.17 117.96 81.19 C 114.65 75.54 114.33 68.95 113.33 62.65 C 111.80 67.07 111.42 71.87 109.13 76.02 C 107.01 79.85 105.19 83.94 102.30 87.28 C 96.09 93.59 88.02 98.79 78.91 99.07 C 73.28 99.53 68.47 96.00 64.20 92.82 C 58.28 88.45 54.92 81.71 51.52 75.39 C 49.67 72.20 49.35 68.49 49.35 64.88 C 52.90 73.38 56.15 82.53 62.80 89.16 C 70.03 96.28 81.57 97.61 90.67 93.61 C 96.12 90.78 100.94 86.54 104.12 81.26 C 108.15 74.25 110.32 66.39 112.53 58.68 C 114.69 51.52 115.53 43.78 113.40 36.50 C 111.05 28.05 108.27 18.61 100.50 13.53 C 92.34 7.89 81.92 7.63 72.40 8.67 C 64.04 9.72 56.56 15.12 52.42 22.40 C 49.44 27.34 49.02 33.23 47.88 38.76 C 47.16 42.81 45.88 47.02 47.17 51.09 C 48.31 54.99 49.23 58.97 49.23 63.06 C 47.20 58.87 43.96 54.94 43.95 50.08 C 43.68 41.74 46.76 33.83 49.21 26.01 C 52.39 17.15 59.23 8.63 68.92 6.83 Z" />
</g>
<g id="#cae9d3ff">
<path fill="#cae9d3" opacity="1.00" d=" M 213.35 6.38 C 221.07 4.96 229.01 6.29 236.43 8.55 C 241.38 10.03 244.97 13.97 248.12 17.86 C 253.25 24.00 254.76 32.12 256.42 39.72 C 257.89 46.52 256.69 53.46 255.10 60.12 C 252.52 73.89 245.33 87.66 232.79 94.75 C 226.39 98.91 218.19 98.98 211.05 96.94 C 207.97 95.57 205.84 92.80 203.46 90.53 C 198.55 85.93 195.34 79.91 191.92 74.20 C 186.71 61.39 186.21 47.17 187.64 33.57 C 188.52 25.46 193.96 19.03 199.40 13.39 C 203.15 9.64 208.11 7.18 213.35 6.38 M 217.41 8.51 C 210.74 9.16 204.12 11.64 198.97 15.99 C 194.35 20.61 191.75 26.81 189.97 33.00 C 186.82 42.26 187.32 52.51 190.22 61.77 C 192.52 70.29 195.78 78.74 201.14 85.82 C 205.28 90.37 210.65 94.52 216.95 95.21 C 222.50 95.45 228.57 95.51 233.47 92.49 C 242.43 86.82 247.58 76.94 251.38 67.36 C 254.25 60.98 253.91 53.84 254.09 47.00 C 254.02 40.75 254.21 34.23 251.61 28.39 C 248.92 22.30 245.68 15.67 239.33 12.67 C 232.56 9.47 224.89 8.01 217.41 8.51 Z" />
</g>
<g id="#85dcb0ff">
<path fill="#85dcb0" opacity="1.00" d=" M 72.40 8.67 C 81.92 7.63 92.34 7.89 100.50 13.53 C 108.27 18.61 111.05 28.05 113.40 36.50 C 115.53 43.78 114.69 51.52 112.53 58.68 C 110.32 66.39 108.15 74.25 104.12 81.26 C 100.94 86.54 96.12 90.78 90.67 93.61 C 81.57 97.61 70.03 96.28 62.80 89.16 C 56.15 82.53 52.90 73.38 49.35 64.88 C 49.32 64.42 49.26 63.51 49.23 63.06 C 49.23 58.97 48.31 54.99 47.17 51.09 C 45.88 47.02 47.16 42.81 47.88 38.76 C 49.02 33.23 49.44 27.34 52.42 22.40 C 56.56 15.12 64.04 9.72 72.40 8.67 M 73.34 11.29 C 69.56 11.95 66.09 13.74 62.81 15.66 C 58.57 18.13 56.24 22.66 53.50 26.55 C 50.52 30.74 50.50 36.06 50.04 40.97 C 49.44 46.99 50.24 53.01 50.76 59.00 C 51.21 64.62 54.39 69.43 56.45 74.54 C 59.32 80.29 62.43 86.62 68.35 89.77 C 71.34 91.46 74.49 93.10 77.96 93.48 C 84.08 94.19 90.01 91.42 94.82 87.87 C 105.78 77.09 110.75 61.51 111.62 46.44 C 111.07 36.47 109.01 25.64 101.65 18.33 C 97.00 14.90 91.84 11.50 85.91 11.05 C 81.74 10.66 77.49 10.65 73.34 11.29 Z" />
</g>
<g id="#91ddb5ff">
<path fill="#91ddb5" opacity="1.00" d=" M 217.41 8.51 C 224.89 8.01 232.56 9.47 239.33 12.67 C 245.68 15.67 248.92 22.30 251.61 28.39 C 254.21 34.23 254.02 40.75 254.09 47.00 C 253.91 53.84 254.25 60.98 251.38 67.36 C 247.58 76.94 242.43 86.82 233.47 92.49 C 228.57 95.51 222.50 95.45 216.95 95.21 C 210.65 94.52 205.28 90.37 201.14 85.82 C 195.78 78.74 192.52 70.29 190.22 61.77 C 187.32 52.51 186.82 42.26 189.97 33.00 C 191.75 26.81 194.35 20.61 198.97 15.99 C 204.12 11.64 210.74 9.16 217.41 8.51 M 216.35 10.44 C 210.43 11.00 205.02 13.93 200.17 17.18 C 193.80 24.22 190.62 33.65 189.64 42.98 C 188.82 51.64 191.21 60.15 193.78 68.32 C 196.74 75.69 200.05 83.44 206.44 88.52 C 210.34 91.52 214.87 94.39 219.99 94.15 C 227.81 94.36 235.79 90.79 240.35 84.35 C 245.54 77.29 249.70 69.35 251.94 60.87 C 253.88 48.39 254.40 34.62 247.45 23.49 C 244.28 17.35 237.95 13.82 231.75 11.43 C 226.75 10.06 221.47 10.16 216.35 10.44 Z" />
</g>
<g id="#53cf92ff">
<path fill="#53cf92" opacity="1.00" d=" M 216.35 10.44 C 221.47 10.16 226.75 10.06 231.75 11.43 C 237.95 13.82 244.28 17.35 247.45 23.49 C 254.40 34.62 253.88 48.39 251.94 60.87 C 249.70 69.35 245.54 77.29 240.35 84.35 C 235.79 90.79 227.81 94.36 219.99 94.15 C 214.87 94.39 210.34 91.52 206.44 88.52 C 200.05 83.44 196.74 75.69 193.78 68.32 C 191.21 60.15 188.82 51.64 189.64 42.98 C 190.62 33.65 193.80 24.22 200.17 17.18 C 205.02 13.93 210.43 11.00 216.35 10.44 M 209.73 13.76 C 206.53 15.46 203.07 16.89 200.37 19.36 C 197.79 22.54 195.71 26.16 194.04 29.90 C 188.00 49.21 192.97 71.54 206.47 86.58 C 209.09 89.17 212.66 90.49 215.96 92.00 C 221.43 94.58 227.30 91.55 232.38 89.43 C 236.57 87.81 238.80 83.73 241.25 80.26 C 243.63 76.72 246.82 73.28 246.77 68.74 C 252.85 55.91 253.63 39.93 246.77 27.24 C 245.94 22.88 243.20 18.90 239.26 16.80 C 234.83 14.42 230.26 11.66 225.05 11.68 C 219.91 11.54 214.42 11.25 209.73 13.76 Z" />
</g>
<g id="#33c982ff">
<path fill="#33c982" opacity="1.00" d=" M 73.34 11.29 C 77.49 10.65 81.74 10.66 85.91 11.05 C 91.84 11.50 97.00 14.90 101.65 18.33 C 109.01 25.64 111.07 36.47 111.62 46.44 C 110.75 61.51 105.78 77.09 94.82 87.87 C 90.01 91.42 84.08 94.19 77.96 93.48 C 74.49 93.10 71.34 91.46 68.35 89.77 C 62.43 86.62 59.32 80.29 56.45 74.54 C 54.39 69.43 51.21 64.62 50.76 59.00 C 50.24 53.01 49.44 46.99 50.04 40.97 C 50.50 36.06 50.52 30.74 53.50 26.55 C 56.24 22.66 58.57 18.13 62.81 15.66 C 66.09 13.74 69.56 11.95 73.34 11.29 M 75.36 12.50 C 71.45 13.62 67.82 15.54 64.17 17.29 C 61.27 18.61 59.81 21.60 57.97 24.02 C 55.62 27.47 52.39 30.63 51.78 34.95 C 50.61 42.24 51.27 49.68 51.67 57.01 C 51.82 61.67 55.30 65.22 56.54 69.57 C 58.32 75.23 61.74 80.14 65.05 84.99 C 67.02 88.04 70.80 88.84 73.95 90.12 C 76.71 90.96 79.64 92.46 82.56 91.49 C 86.16 90.31 89.80 89.03 93.04 87.03 C 95.14 84.75 96.42 81.83 98.61 79.61 C 100.81 77.37 102.80 74.86 103.84 71.86 C 105.83 66.38 108.90 61.05 108.79 55.05 C 108.83 50.68 109.11 46.32 109.16 41.96 C 109.19 31.41 103.25 21.14 94.13 15.84 C 88.75 11.93 81.73 11.39 75.36 12.50 Z" />
</g>
<g id="#01be61ff">
<path fill="#01be61" opacity="1.00" d=" M 75.36 12.50 C 81.73 11.39 88.75 11.93 94.13 15.84 C 103.25 21.14 109.19 31.41 109.16 41.96 C 109.11 46.32 108.83 50.68 108.79 55.05 C 108.90 61.05 105.83 66.38 103.84 71.86 C 102.80 74.86 100.81 77.37 98.61 79.61 C 96.42 81.83 95.14 84.75 93.04 87.03 C 89.80 89.03 86.16 90.31 82.56 91.49 C 79.64 92.46 76.71 90.96 73.95 90.12 C 70.80 88.84 67.02 88.04 65.05 84.99 C 61.74 80.14 58.32 75.23 56.54 69.57 C 55.30 65.22 51.82 61.67 51.67 57.01 C 51.27 49.68 50.61 42.24 51.78 34.95 C 52.39 30.63 55.62 27.47 57.97 24.02 C 59.81 21.60 61.27 18.61 64.17 17.29 C 67.82 15.54 71.45 13.62 75.36 12.50 Z" />
</g>
<g id="#25c578ff">
<path fill="#25c578" opacity="1.00" d=" M 209.73 13.76 C 214.42 11.25 219.91 11.54 225.05 11.68 C 230.26 11.66 234.83 14.42 239.26 16.80 C 243.20 18.90 245.94 22.88 246.77 27.24 C 240.89 18.84 231.36 12.94 220.99 12.68 C 210.49 13.14 201.16 20.19 196.09 29.13 C 194.05 32.71 193.87 36.93 193.67 40.94 C 193.45 49.73 193.08 58.90 196.75 67.12 C 198.83 73.78 203.40 79.10 207.57 84.52 C 210.58 88.70 215.98 90.53 220.94 90.74 C 227.18 90.16 233.59 87.54 237.54 82.51 C 240.89 78.11 243.87 73.44 246.77 68.74 C 246.82 73.28 243.63 76.72 241.25 80.26 C 238.80 83.73 236.57 87.81 232.38 89.43 C 227.30 91.55 221.43 94.58 215.96 92.00 C 212.66 90.49 209.09 89.17 206.47 86.58 C 192.97 71.54 188.00 49.21 194.04 29.90 C 195.71 26.16 197.79 22.54 200.37 19.36 C 203.07 16.89 206.53 15.46 209.73 13.76 Z" />
</g>
<g id="#01bf62ff">
<path fill="#01bf62" opacity="1.00" d=" M 196.09 29.13 C 201.16 20.19 210.49 13.14 220.99 12.68 C 231.36 12.94 240.89 18.84 246.77 27.24 C 253.63 39.93 252.85 55.91 246.77 68.74 C 243.87 73.44 240.89 78.11 237.54 82.51 C 233.59 87.54 227.18 90.16 220.94 90.74 C 215.98 90.53 210.58 88.70 207.57 84.52 C 203.40 79.10 198.83 73.78 196.75 67.12 C 193.08 58.90 193.45 49.73 193.67 40.94 C 193.87 36.93 194.05 32.71 196.09 29.13 Z" />
<path fill="#01bf62" opacity="1.00" d=" M 205.69 109.66 C 215.44 108.35 225.27 109.47 235.06 109.29 C 248.29 109.92 261.81 113.35 272.54 121.43 C 278.52 124.96 283.55 129.87 287.18 135.81 C 295.19 146.31 299.12 159.62 298.73 172.75 C 298.59 175.77 294.96 176.16 292.64 176.50 C 282.36 177.38 272.04 176.07 261.74 176.46 C 255.83 176.36 249.40 177.89 243.88 175.23 C 241.27 170.78 239.88 165.61 236.20 161.80 C 235.68 160.94 235.36 160.00 235.25 158.98 C 234.76 156.13 233.96 153.24 231.98 151.04 C 229.17 147.72 226.86 144.05 224.68 140.31 C 222.63 136.66 218.79 134.75 215.53 132.40 C 210.83 129.15 207.12 124.57 201.96 121.96 C 197.23 119.42 191.71 118.67 187.19 115.71 C 186.84 113.80 188.97 113.10 190.34 112.44 C 195.25 110.64 200.55 110.38 205.69 109.66 Z" />
<path fill="#01bf62" opacity="1.00" d=" M 145.40 157.47 C 153.23 156.34 161.11 157.67 168.76 159.30 C 174.40 160.54 179.48 163.54 184.15 166.85 C 189.41 170.86 194.95 174.70 199.01 180.01 C 202.90 184.41 204.97 189.98 208.12 194.88 C 211.09 199.34 209.99 205.00 211.00 210.03 C 212.13 216.15 211.12 222.31 210.54 228.42 C 210.28 238.62 204.91 247.87 198.58 255.55 C 194.69 260.79 188.45 263.37 183.92 267.94 C 180.27 271.80 174.79 272.38 170.05 274.15 C 162.31 277.13 153.82 278.83 145.56 277.42 C 138.46 276.25 131.44 274.57 124.55 272.51 C 119.73 271.23 116.57 267.14 112.84 264.15 C 107.05 259.36 100.66 254.51 97.86 247.27 C 95.98 242.43 93.33 237.87 92.20 232.77 C 91.14 227.80 88.46 223.18 88.55 218.00 C 88.39 212.78 91.21 208.15 92.07 203.11 C 93.07 196.94 96.46 191.60 99.08 186.03 C 105.01 176.15 114.36 168.96 123.97 162.89 C 130.29 158.66 138.18 158.81 145.40 157.47 M 149.39 181.40 C 144.24 182.63 142.14 189.59 145.27 193.73 C 147.25 197.62 153.29 198.58 156.03 195.04 C 157.70 191.62 157.81 187.32 156.11 183.89 C 154.89 181.46 151.84 180.88 149.39 181.40 M 148.34 201.12 C 143.46 204.24 142.48 210.64 142.65 215.99 C 142.94 224.34 142.45 232.70 142.75 241.05 C 142.95 245.69 144.50 251.21 149.13 253.24 C 151.76 253.78 154.99 252.63 156.14 250.05 C 158.63 244.75 158.32 238.71 158.33 233.00 C 158.19 226.66 158.43 220.31 158.32 213.97 C 158.14 210.10 157.80 205.89 155.32 202.73 C 153.63 200.93 150.63 199.85 148.34 201.12 Z" />
</g>
<g id="#b4e6c9ff">
<path fill="#b4e6c9" opacity="1.00" d=" M 133.71 30.82 C 144.42 26.40 156.73 26.48 167.46 30.74 C 180.41 38.95 185.49 55.34 184.82 70.02 C 185.51 79.89 181.23 88.96 177.89 97.97 C 175.92 103.15 172.50 107.70 168.12 111.09 C 162.21 115.68 155.09 120.02 147.27 118.74 C 141.59 118.56 137.04 114.39 131.51 113.85 C 129.98 115.94 129.02 118.42 127.21 120.30 C 123.96 121.70 120.31 121.39 116.87 121.81 C 119.86 120.81 122.94 119.97 125.74 118.50 C 127.61 117.79 127.77 115.47 127.45 113.79 C 119.86 108.70 110.89 106.60 102.01 105.09 C 92.88 102.40 83.33 103.62 73.98 103.37 C 65.71 103.14 57.62 105.08 49.62 106.93 C 40.19 109.15 31.85 114.44 24.20 120.20 C 19.02 124.03 15.29 129.35 11.66 134.57 C 8.10 139.73 5.13 145.41 3.97 151.62 C 3.19 155.90 1.88 160.05 0.00 163.97 L 0.00 156.88 C 1.86 153.04 3.20 148.98 4.23 144.85 C 5.71 138.90 9.84 134.20 13.43 129.41 C 20.56 119.78 30.61 112.61 41.45 107.67 C 52.90 102.51 65.61 101.42 78.02 101.35 C 84.37 101.51 90.67 102.45 97.03 102.30 C 107.79 102.17 117.76 106.75 127.19 111.42 C 127.47 111.05 128.02 110.31 128.30 109.94 C 128.07 105.87 124.45 103.07 122.61 99.64 C 119.02 94.44 118.00 88.02 118.61 81.83 C 123.42 91.60 125.98 103.04 134.54 110.45 C 140.46 114.92 148.60 118.30 155.86 115.02 C 167.70 111.17 174.48 99.54 178.35 88.45 C 180.85 79.32 183.86 69.77 181.90 60.23 C 180.51 53.44 178.73 46.33 174.16 40.91 C 161.86 26.44 135.79 27.12 124.77 42.80 C 122.34 45.80 121.04 49.47 119.95 53.11 L 119.64 53.97 L 118.59 54.05 C 118.74 50.54 119.03 46.89 120.84 43.78 C 123.85 38.46 127.67 32.92 133.71 30.82 Z" />
</g>
<g id="#5ed29aff">
<path fill="#5ed29a" opacity="1.00" d=" M 124.77 42.80 C 135.79 27.12 161.86 26.44 174.16 40.91 C 178.73 46.33 180.51 53.44 181.90 60.23 C 183.86 69.77 180.85 79.32 178.35 88.45 C 174.48 99.54 167.70 111.17 155.86 115.02 C 148.60 118.30 140.46 114.92 134.54 110.45 C 125.98 103.04 123.42 91.60 118.61 81.83 C 118.57 78.60 118.94 75.34 118.43 72.13 C 118.14 69.11 117.88 66.07 118.26 63.04 C 118.60 60.05 118.34 57.04 118.59 54.05 L 119.64 53.97 C 119.96 60.67 119.51 67.36 119.64 74.05 C 119.71 81.54 123.31 88.29 126.01 95.09 C 129.21 101.93 133.51 109.18 140.79 112.25 C 147.64 115.33 155.94 114.21 162.13 110.13 C 168.00 105.77 171.82 99.29 174.99 92.83 C 178.13 86.67 179.02 79.73 180.08 72.99 C 181.14 66.43 179.81 59.82 178.59 53.39 C 177.25 45.24 170.69 39.05 163.67 35.37 C 156.50 32.41 148.35 32.37 140.80 33.74 C 131.03 36.15 124.91 45.02 119.95 53.11 C 121.04 49.47 122.34 45.80 124.77 42.80 Z" />
</g>
<g id="#27c779ff">
<path fill="#27c779" opacity="1.00" d=" M 140.80 33.74 C 148.35 32.37 156.50 32.41 163.67 35.37 C 170.69 39.05 177.25 45.24 178.59 53.39 C 179.81 59.82 181.14 66.43 180.08 72.99 C 179.02 79.73 178.13 86.67 174.99 92.83 C 171.82 99.29 168.00 105.77 162.13 110.13 C 155.94 114.21 147.64 115.33 140.79 112.25 C 133.51 109.18 129.21 101.93 126.01 95.09 C 123.31 88.29 119.71 81.54 119.64 74.05 C 119.51 67.36 119.96 60.67 119.64 53.97 L 119.95 53.11 C 124.91 45.02 131.03 36.15 140.80 33.74 M 141.35 35.51 C 138.04 35.80 135.55 38.11 133.25 40.26 C 130.53 42.85 127.00 44.71 125.18 48.12 C 123.33 51.53 120.73 54.89 120.79 58.95 C 120.75 63.97 120.70 69.00 120.66 74.02 C 120.52 78.80 123.08 82.99 124.54 87.39 C 126.16 92.15 129.27 96.18 131.51 100.64 C 133.55 104.61 136.73 108.18 140.82 110.09 C 145.76 111.34 150.97 111.01 156.03 110.89 C 161.64 110.98 164.60 105.52 167.78 101.78 C 172.36 96.58 174.27 89.83 176.46 83.42 C 179.09 75.06 177.94 66.16 177.48 57.57 C 177.24 51.41 174.62 45.17 169.42 41.60 C 165.61 39.00 161.93 35.32 157.03 35.24 C 151.81 35.05 146.54 34.86 141.35 35.51 Z" />
</g>
<g id="#00bf62ff">
<path fill="#00bf62" opacity="1.00" d=" M 141.35 35.51 C 146.54 34.86 151.81 35.05 157.03 35.24 C 161.93 35.32 165.61 39.00 169.42 41.60 C 174.62 45.17 177.24 51.41 177.48 57.57 C 177.94 66.16 179.09 75.06 176.46 83.42 C 174.27 89.83 172.36 96.58 167.78 101.78 C 164.60 105.52 161.64 110.98 156.03 110.89 C 150.97 111.01 145.76 111.34 140.82 110.09 C 136.73 108.18 133.55 104.61 131.51 100.64 C 129.27 96.18 126.16 92.15 124.54 87.39 C 123.08 82.99 120.52 78.80 120.66 74.02 C 120.70 69.00 120.75 63.97 120.79 58.95 C 120.73 54.89 123.33 51.53 125.18 48.12 C 127.00 44.71 130.53 42.85 133.25 40.26 C 135.55 38.11 138.04 35.80 141.35 35.51 Z" />
</g>
<g id="#85dbafff">
<path fill="#85dbaf" opacity="1.00" d=" M 49.62 106.93 C 57.62 105.08 65.71 103.14 73.98 103.37 C 83.33 103.62 92.88 102.40 102.01 105.09 C 110.89 106.60 119.86 108.70 127.45 113.79 C 127.77 115.47 127.61 117.79 125.74 118.50 C 122.94 119.97 119.86 120.81 116.87 121.81 C 107.25 124.59 98.60 129.80 90.38 135.38 C 85.91 138.55 82.82 143.16 79.13 147.13 C 74.10 152.48 71.10 159.26 67.46 165.53 C 64.68 170.29 64.85 175.98 63.09 181.08 C 59.14 182.03 55.03 181.75 50.99 181.80 C 36.99 181.59 22.98 181.91 8.98 181.68 C 5.28 181.85 2.39 179.30 0.00 176.81 L 0.00 163.97 C 1.88 160.05 3.19 155.90 3.97 151.62 C 5.13 145.41 8.10 139.73 11.66 134.57 C 15.29 129.35 19.02 124.03 24.20 120.20 C 31.85 114.44 40.19 109.15 49.62 106.93 M 32.06 118.04 C 26.78 122.04 20.64 125.46 17.39 131.49 C 11.50 139.98 5.64 149.05 4.43 159.56 C 3.95 164.84 1.37 170.66 4.30 175.64 C 6.16 179.09 10.51 179.33 13.97 179.43 C 26.41 179.45 38.86 179.22 51.30 179.56 C 54.13 179.57 57.30 179.53 59.51 177.48 C 62.34 175.27 62.56 171.43 63.44 168.23 C 64.66 162.33 68.67 157.65 71.41 152.44 C 74.20 147.10 78.64 142.98 82.46 138.41 C 87.04 132.88 93.26 129.07 99.34 125.41 C 106.73 121.10 115.39 119.56 122.62 114.98 C 115.67 109.67 106.73 108.44 98.31 107.43 C 90.60 106.15 82.77 106.72 75.00 106.68 C 60.08 106.85 44.58 109.42 32.06 118.04 Z" />
</g>
<g id="#85daafff">
<path fill="#85daaf" opacity="1.00" d=" M 194.99 105.97 C 200.65 105.01 206.22 103.15 212.03 103.36 C 220.04 103.65 228.03 102.55 236.03 103.27 C 248.46 103.62 260.22 108.33 271.19 113.84 C 276.57 116.87 281.79 120.45 285.67 125.33 C 292.41 133.21 297.78 142.32 300.95 152.22 C 304.17 160.11 305.09 169.03 303.23 177.36 C 301.94 181.67 296.71 181.74 293.04 181.77 C 277.01 181.58 260.98 181.87 244.95 181.71 C 242.77 181.49 239.68 181.94 238.62 179.49 C 234.81 171.36 234.25 161.75 228.47 154.57 C 223.96 149.08 220.49 142.56 214.66 138.29 C 207.62 132.85 200.63 127.08 192.32 123.66 C 187.70 121.83 182.50 122.16 177.99 120.04 C 175.78 119.05 174.32 116.59 174.73 114.16 C 180.63 109.79 187.74 107.08 194.99 105.97 M 202.09 108.01 C 194.73 108.35 187.11 110.14 181.35 114.98 C 185.91 119.99 193.18 119.98 198.80 123.20 C 204.59 125.70 209.50 129.65 214.16 133.81 C 223.25 140.27 228.72 150.22 235.25 158.98 C 235.36 160.00 235.68 160.94 236.20 161.80 C 238.08 166.47 239.32 171.35 240.90 176.10 C 243.53 179.38 248.18 179.32 252.00 179.43 C 264.34 179.37 276.69 179.42 289.03 179.46 C 293.30 179.42 298.24 178.42 300.82 174.69 C 302.99 168.29 300.42 161.72 298.72 155.55 C 296.84 148.19 293.41 141.26 288.87 135.18 C 285.87 131.21 283.62 126.48 279.34 123.66 C 273.48 119.72 267.93 115.06 261.14 112.77 C 256.40 111.13 251.80 108.94 246.82 108.14 C 231.99 106.24 216.93 106.18 202.09 108.01 Z" />
</g>
<g id="#2ccb81ff">
<path fill="#2ccb81" opacity="1.00" d=" M 32.06 118.04 C 44.58 109.42 60.08 106.85 75.00 106.68 C 82.77 106.72 90.60 106.15 98.31 107.43 C 106.73 108.44 115.67 109.67 122.62 114.98 C 115.39 119.56 106.73 121.10 99.34 125.41 C 93.26 129.07 87.04 132.88 82.46 138.41 C 78.64 142.98 74.20 147.10 71.41 152.44 C 68.67 157.65 64.66 162.33 63.44 168.23 C 62.56 171.43 62.34 175.27 59.51 177.48 C 57.30 179.53 54.13 179.57 51.30 179.56 C 38.86 179.22 26.41 179.45 13.97 179.43 C 10.51 179.33 6.16 179.09 4.30 175.64 C 1.37 170.66 3.95 164.84 4.43 159.56 C 5.64 149.05 11.50 139.98 17.39 131.49 C 20.64 125.46 26.78 122.04 32.06 118.04 M 38.58 116.46 C 32.67 119.58 26.97 123.43 22.34 128.29 C 17.48 134.95 12.23 141.52 9.32 149.34 C 5.71 157.04 3.72 165.90 5.73 174.30 C 7.75 176.60 11.21 176.41 14.02 176.65 C 26.02 176.74 38.03 176.49 50.04 176.77 C 53.15 176.67 57.13 177.14 59.14 174.18 C 62.19 169.60 62.35 163.80 65.03 159.04 C 72.84 145.44 83.21 133.05 96.38 124.36 C 102.58 120.38 110.35 119.55 116.17 114.91 C 113.71 111.93 109.54 111.88 106.09 110.88 C 95.63 107.92 84.70 109.69 74.01 109.29 C 61.84 108.84 49.72 111.67 38.58 116.46 Z" />
</g>
<g id="#2ac67cff">
<path fill="#2ac67c" opacity="1.00" d=" M 202.09 108.01 C 216.93 106.18 231.99 106.24 246.82 108.14 C 251.80 108.94 256.40 111.13 261.14 112.77 C 267.93 115.06 273.48 119.72 279.34 123.66 C 283.62 126.48 285.87 131.21 288.87 135.18 C 293.41 141.26 296.84 148.19 298.72 155.55 C 300.42 161.72 302.99 168.29 300.82 174.69 C 298.24 178.42 293.30 179.42 289.03 179.46 C 276.69 179.42 264.34 179.37 252.00 179.43 C 248.18 179.32 243.53 179.38 240.90 176.10 C 239.32 171.35 238.08 166.47 236.20 161.80 C 239.88 165.61 241.27 170.78 243.88 175.23 C 249.40 177.89 255.83 176.36 261.74 176.46 C 272.04 176.07 282.36 177.38 292.64 176.50 C 294.96 176.16 298.59 175.77 298.73 172.75 C 299.12 159.62 295.19 146.31 287.18 135.81 C 283.55 129.87 278.52 124.96 272.54 121.43 C 261.81 113.35 248.29 109.92 235.06 109.29 C 225.27 109.47 215.44 108.35 205.69 109.66 C 200.55 110.38 195.25 110.64 190.34 112.44 C 188.97 113.10 186.84 113.80 187.19 115.71 C 191.71 118.67 197.23 119.42 201.96 121.96 C 207.12 124.57 210.83 129.15 215.53 132.40 C 218.79 134.75 222.63 136.66 224.68 140.31 C 226.86 144.05 229.17 147.72 231.98 151.04 C 233.96 153.24 234.76 156.13 235.25 158.98 C 228.72 150.22 223.25 140.27 214.16 133.81 C 209.50 129.65 204.59 125.70 198.80 123.20 C 193.18 119.98 185.91 119.99 181.35 114.98 C 187.11 110.14 194.73 108.35 202.09 108.01 Z" />
</g>
<g id="#01bf61ff">
<path fill="#01bf61" opacity="1.00" d=" M 38.58 116.46 C 49.72 111.67 61.84 108.84 74.01 109.29 C 84.70 109.69 95.63 107.92 106.09 110.88 C 109.54 111.88 113.71 111.93 116.17 114.91 C 110.35 119.55 102.58 120.38 96.38 124.36 C 83.21 133.05 72.84 145.44 65.03 159.04 C 62.35 163.80 62.19 169.60 59.14 174.18 C 57.13 177.14 53.15 176.67 50.04 176.77 C 38.03 176.49 26.02 176.74 14.02 176.65 C 11.21 176.41 7.75 176.60 5.73 174.30 C 3.72 165.90 5.71 157.04 9.32 149.34 C 12.23 141.52 17.48 134.95 22.34 128.29 C 26.97 123.43 32.67 119.58 38.58 116.46 Z" />
</g>
<g id="#ace3c5ff">
<path fill="#ace3c5" opacity="1.00" d=" M 149.16 124.61 C 161.39 124.00 174.00 123.98 185.69 128.11 C 191.67 130.01 196.86 133.61 202.24 136.71 C 214.21 143.75 222.15 155.78 228.10 168.01 C 231.31 173.62 231.55 180.20 232.87 186.38 C 233.57 190.30 234.46 194.65 232.49 198.36 C 231.12 201.08 227.52 203.52 224.60 201.54 C 221.60 200.37 220.50 197.17 219.47 194.41 C 217.43 188.78 214.56 183.51 211.72 178.26 C 209.27 173.55 204.75 170.52 201.44 166.49 C 199.51 164.18 197.65 161.71 195.01 160.15 C 189.78 156.93 184.61 153.52 178.87 151.27 C 172.18 148.44 165.32 145.28 157.88 145.43 C 151.31 145.59 144.58 144.70 138.13 146.24 C 131.05 148.67 123.61 150.31 117.15 154.26 C 109.80 158.53 101.65 162.40 96.67 169.61 C 92.71 175.03 88.22 180.17 85.45 186.35 C 83.49 190.32 82.80 194.79 80.71 198.70 C 79.36 201.04 76.24 202.91 73.59 201.61 C 70.47 200.43 69.14 197.01 68.69 193.96 C 68.06 189.83 69.83 185.91 70.78 181.98 C 71.99 177.61 71.73 172.89 73.69 168.73 C 76.57 162.78 79.47 156.78 83.43 151.45 C 87.96 144.70 94.61 139.72 101.42 135.47 C 107.73 132.23 113.71 127.93 120.85 126.74 C 130.13 124.59 139.68 124.36 149.16 124.61 M 117.77 129.88 C 111.58 131.19 106.28 134.83 100.80 137.80 C 89.01 144.69 80.94 156.31 75.55 168.60 C 72.70 173.94 72.63 180.08 71.81 185.92 C 71.36 190.01 70.72 194.48 72.72 198.28 C 73.61 200.16 76.51 200.56 77.73 198.77 C 82.48 193.71 82.69 186.21 86.58 180.60 C 89.04 175.57 94.14 172.18 95.68 166.69 C 100.61 163.74 104.58 159.45 109.59 156.61 C 119.99 150.18 131.42 144.15 143.97 144.19 C 152.49 144.30 161.19 143.53 169.57 145.46 C 177.24 147.81 184.52 151.41 191.31 155.65 C 197.87 159.56 203.08 165.23 208.21 170.79 C 214.43 178.25 218.45 187.25 221.78 196.30 C 222.75 199.68 228.11 201.63 230.26 198.29 C 231.23 195.65 230.93 192.75 230.92 189.98 C 230.61 184.17 230.58 178.16 228.29 172.70 C 223.60 161.61 217.49 150.70 208.01 143.00 C 199.75 136.53 190.42 131.15 180.13 128.76 C 172.37 126.06 164.09 126.06 155.98 125.84 C 149.02 125.86 142.05 125.61 135.11 126.16 C 129.18 126.60 123.54 128.62 117.77 129.88 Z" />
</g>
<g id="#70d6a3ff">
<path fill="#70d6a3" opacity="1.00" d=" M 117.77 129.88 C 123.54 128.62 129.18 126.60 135.11 126.16 C 142.05 125.61 149.02 125.86 155.98 125.84 C 164.09 126.06 172.37 126.06 180.13 128.76 C 190.42 131.15 199.75 136.53 208.01 143.00 C 217.49 150.70 223.60 161.61 228.29 172.70 C 230.58 178.16 230.61 184.17 230.92 189.98 C 230.93 192.75 231.23 195.65 230.26 198.29 C 228.11 201.63 222.75 199.68 221.78 196.30 C 218.45 187.25 214.43 178.25 208.21 170.79 C 203.08 165.23 197.87 159.56 191.31 155.65 C 184.52 151.41 177.24 147.81 169.57 145.46 C 161.19 143.53 152.49 144.30 143.97 144.19 C 131.42 144.15 119.99 150.18 109.59 156.61 C 104.58 159.45 100.61 163.74 95.68 166.69 C 100.61 159.38 108.54 155.22 115.96 150.93 C 120.60 148.32 125.38 145.80 130.59 144.56 C 137.91 142.78 145.52 143.01 153.00 143.01 C 161.28 143.13 169.93 142.90 177.65 146.40 C 196.12 154.40 212.60 168.76 220.03 187.80 C 221.73 191.86 222.87 196.78 227.01 199.09 C 227.91 198.42 229.31 197.86 229.42 196.58 C 230.11 192.39 229.75 188.10 229.34 183.89 C 228.51 174.70 223.82 166.52 219.33 158.68 C 212.43 146.69 200.76 138.07 188.10 132.94 C 180.24 130.33 172.07 128.36 163.76 128.16 C 152.24 127.82 140.54 126.53 129.17 129.10 C 124.27 130.15 119.27 130.91 114.54 132.62 C 105.47 136.07 97.26 141.58 90.26 148.27 C 84.48 153.92 81.00 161.37 77.34 168.46 C 73.48 175.68 72.95 184.05 72.85 192.08 C 72.73 194.65 73.54 197.17 75.08 199.23 C 79.92 195.28 80.86 188.76 83.57 183.46 C 86.40 177.09 90.56 171.41 95.68 166.69 C 94.14 172.18 89.04 175.57 86.58 180.60 C 82.69 186.21 82.48 193.71 77.73 198.77 C 76.51 200.56 73.61 200.16 72.72 198.28 C 70.72 194.48 71.36 190.01 71.81 185.92 C 72.63 180.08 72.70 173.94 75.55 168.60 C 80.94 156.31 89.01 144.69 100.80 137.80 C 106.28 134.83 111.58 131.19 117.77 129.88 Z" />
</g>
<g id="#34cd83ff">
<path fill="#34cd83" opacity="1.00" d=" M 129.17 129.10 C 140.54 126.53 152.24 127.82 163.76 128.16 C 172.07 128.36 180.24 130.33 188.10 132.94 C 200.76 138.07 212.43 146.69 219.33 158.68 C 223.82 166.52 228.51 174.70 229.34 183.89 C 229.75 188.10 230.11 192.39 229.42 196.58 C 229.31 197.86 227.91 198.42 227.01 199.09 C 222.87 196.78 221.73 191.86 220.03 187.80 C 212.60 168.76 196.12 154.40 177.65 146.40 C 169.93 142.90 161.28 143.13 153.00 143.01 C 145.52 143.01 137.91 142.78 130.59 144.56 C 125.38 145.80 120.60 148.32 115.96 150.93 C 108.54 155.22 100.61 159.38 95.68 166.69 C 90.56 171.41 86.40 177.09 83.57 183.46 C 80.86 188.76 79.92 195.28 75.08 199.23 C 73.54 197.17 72.73 194.65 72.85 192.08 C 72.95 184.05 73.48 175.68 77.34 168.46 C 81.00 161.37 84.48 153.92 90.26 148.27 C 97.26 141.58 105.47 136.07 114.54 132.62 C 119.27 130.91 124.27 130.15 129.17 129.10 M 127.76 131.58 C 120.82 131.71 114.49 134.68 108.20 137.27 C 103.76 139.18 100.38 142.72 96.57 145.57 C 93.61 147.90 90.31 149.96 88.17 153.15 C 83.74 159.93 79.92 167.09 76.48 174.43 C 74.38 178.98 74.23 184.08 74.01 189.00 C 74.01 191.52 73.63 194.55 75.86 196.31 C 79.00 191.55 80.20 185.87 82.93 180.89 C 85.14 176.90 86.76 172.39 90.26 169.28 C 92.54 167.20 94.75 165.05 96.76 162.71 C 101.41 157.22 107.53 153.21 113.85 149.90 C 118.09 147.70 122.03 144.73 126.77 143.69 C 135.73 141.71 144.81 139.63 154.05 139.92 C 159.87 140.17 165.52 141.73 171.27 142.58 C 175.23 143.12 179.03 144.42 182.53 146.34 C 200.91 155.04 216.07 170.99 222.69 190.33 C 223.56 192.67 224.98 194.79 227.00 196.29 C 228.05 195.46 228.87 194.33 228.70 192.93 C 229.23 183.54 225.40 174.70 221.66 166.31 C 215.86 154.80 206.40 145.34 195.63 138.39 C 186.01 133.13 174.84 131.73 164.10 130.56 C 151.99 130.18 139.77 129.63 127.76 131.58 Z" />
</g>
<g id="#03bf62ff">
<path fill="#03bf62" opacity="1.00" d=" M 127.76 131.58 C 139.77 129.63 151.99 130.18 164.10 130.56 C 174.84 131.73 186.01 133.13 195.63 138.39 C 206.40 145.34 215.86 154.80 221.66 166.31 C 225.40 174.70 229.23 183.54 228.70 192.93 C 228.87 194.33 228.05 195.46 227.00 196.29 C 224.98 194.79 223.56 192.67 222.69 190.33 C 216.07 170.99 200.91 155.04 182.53 146.34 C 179.03 144.42 175.23 143.12 171.27 142.58 C 165.52 141.73 159.87 140.17 154.05 139.92 C 144.81 139.63 135.73 141.71 126.77 143.69 C 122.03 144.73 118.09 147.70 113.85 149.90 C 107.53 153.21 101.41 157.22 96.76 162.71 C 94.75 165.05 92.54 167.20 90.26 169.28 C 86.76 172.39 85.14 176.90 82.93 180.89 C 80.20 185.87 79.00 191.55 75.86 196.31 C 73.63 194.55 74.01 191.52 74.01 189.00 C 74.23 184.08 74.38 178.98 76.48 174.43 C 79.92 167.09 83.74 159.93 88.17 153.15 C 90.31 149.96 93.61 147.90 96.57 145.57 C 100.38 142.72 103.76 139.18 108.20 137.27 C 114.49 134.68 120.82 131.71 127.76 131.58 Z" />
</g>
<g id="#abe3c3ff">
<path fill="#abe3c3" opacity="1.00" d=" M 141.37 152.19 C 149.81 151.70 158.54 150.87 166.83 152.99 C 177.26 156.77 188.11 160.94 196.17 168.83 C 203.27 176.77 210.95 185.26 213.02 196.06 C 214.03 199.70 216.15 203.01 216.45 206.84 C 217.23 214.84 217.30 222.97 215.97 230.91 C 214.83 235.56 212.89 239.98 211.43 244.54 C 208.17 253.70 201.40 260.94 194.67 267.70 C 183.87 276.73 170.22 282.85 156.02 283.28 C 147.01 283.54 137.64 283.74 129.18 280.11 C 123.89 277.76 118.57 275.41 113.57 272.50 C 109.19 269.23 105.28 265.38 101.36 261.59 C 96.79 257.14 94.05 251.28 91.48 245.54 C 89.39 240.80 86.75 236.15 86.08 230.93 C 84.89 221.24 84.95 211.37 86.65 201.74 C 87.94 196.01 91.28 191.05 93.59 185.72 C 97.05 177.76 102.72 170.68 109.99 165.89 C 114.19 163.13 118.00 159.67 122.70 157.75 C 128.72 155.30 134.79 152.59 141.37 152.19 M 145.40 153.38 C 138.65 153.46 132.45 156.34 126.06 158.15 C 122.02 159.34 118.61 161.89 115.13 164.16 C 106.92 169.81 99.16 176.90 95.10 186.18 C 92.29 192.22 89.36 198.27 87.75 204.76 C 86.37 211.08 86.49 217.62 86.76 224.05 C 87.03 232.71 91.33 240.47 94.67 248.25 C 97.88 255.84 103.75 261.82 109.97 267.04 C 114.56 271.36 120.24 274.25 125.89 276.92 C 136.84 280.87 148.73 283.69 160.37 281.26 C 168.85 278.87 177.60 276.84 185.16 272.10 C 195.82 265.33 204.82 255.58 209.94 243.99 C 212.79 234.94 216.02 225.72 215.60 216.09 C 215.75 209.53 213.33 203.35 211.88 197.05 C 209.68 187.89 203.75 180.27 197.79 173.21 C 194.00 168.16 188.39 165.07 183.13 161.81 C 178.58 158.93 173.35 157.47 168.32 155.67 C 161.03 152.90 153.07 153.15 145.40 153.38 Z" />
</g>
<g id="#6fd5a2ff">
<path fill="#6fd5a2" opacity="1.00" d=" M 145.40 153.38 C 153.07 153.15 161.03 152.90 168.32 155.67 C 173.35 157.47 178.58 158.93 183.13 161.81 C 188.39 165.07 194.00 168.16 197.79 173.21 C 203.75 180.27 209.68 187.89 211.88 197.05 C 213.33 203.35 215.75 209.53 215.60 216.09 C 216.02 225.72 212.79 234.94 209.94 243.99 C 204.82 255.58 195.82 265.33 185.16 272.10 C 177.60 276.84 168.85 278.87 160.37 281.26 C 148.73 283.69 136.84 280.87 125.89 276.92 C 120.24 274.25 114.56 271.36 109.97 267.04 C 103.75 261.82 97.88 255.84 94.67 248.25 C 91.33 240.47 87.03 232.71 86.76 224.05 C 86.49 217.62 86.37 211.08 87.75 204.76 C 89.36 198.27 92.29 192.22 95.10 186.18 C 99.16 176.90 106.92 169.81 115.13 164.16 C 118.61 161.89 122.02 159.34 126.06 158.15 C 132.45 156.34 138.65 153.46 145.40 153.38 M 140.39 155.54 C 133.30 157.88 125.53 158.83 119.31 163.28 C 111.64 168.40 104.49 174.54 99.08 182.05 C 94.06 191.46 89.58 201.39 87.95 212.01 C 86.46 222.68 89.43 233.41 94.04 242.96 C 96.55 247.97 98.17 253.67 102.39 257.60 C 111.05 265.64 119.89 274.73 131.98 277.10 C 139.02 278.23 145.80 281.07 153.02 280.99 C 157.17 280.99 160.98 279.10 164.93 278.07 C 173.47 275.81 182.25 273.02 188.90 266.92 C 197.23 261.59 203.40 253.47 207.85 244.76 C 211.01 239.01 211.42 232.35 213.15 226.14 C 214.68 220.49 214.85 214.47 213.17 208.84 C 211.73 204.02 211.33 198.95 209.71 194.19 C 204.80 182.74 196.63 172.67 186.23 165.78 C 180.82 161.47 174.32 158.95 167.69 157.25 C 159.02 153.93 149.42 153.95 140.39 155.54 Z" />
</g>
<g id="#34cb84ff">
<path fill="#34cb84" opacity="1.00" d=" M 140.39 155.54 C 149.42 153.95 159.02 153.93 167.69 157.25 C 174.32 158.95 180.82 161.47 186.23 165.78 C 196.63 172.67 204.80 182.74 209.71 194.19 C 211.33 198.95 211.73 204.02 213.17 208.84 C 214.85 214.47 214.68 220.49 213.15 226.14 C 211.42 232.35 211.01 239.01 207.85 244.76 C 203.40 253.47 197.23 261.59 188.90 266.92 C 182.25 273.02 173.47 275.81 164.93 278.07 C 160.98 279.10 157.17 280.99 153.02 280.99 C 145.80 281.07 139.02 278.23 131.98 277.10 C 119.89 274.73 111.05 265.64 102.39 257.60 C 98.17 253.67 96.55 247.97 94.04 242.96 C 89.43 233.41 86.46 222.68 87.95 212.01 C 89.58 201.39 94.06 191.46 99.08 182.05 C 104.49 174.54 111.64 168.40 119.31 163.28 C 125.53 158.83 133.30 157.88 140.39 155.54 M 145.40 157.47 C 138.18 158.81 130.29 158.66 123.97 162.89 C 114.36 168.96 105.01 176.15 99.08 186.03 C 96.46 191.60 93.07 196.94 92.07 203.11 C 91.21 208.15 88.39 212.78 88.55 218.00 C 88.46 223.18 91.14 227.80 92.20 232.77 C 93.33 237.87 95.98 242.43 97.86 247.27 C 100.66 254.51 107.05 259.36 112.84 264.15 C 116.57 267.14 119.73 271.23 124.55 272.51 C 131.44 274.57 138.46 276.25 145.56 277.42 C 153.82 278.83 162.31 277.13 170.05 274.15 C 174.79 272.38 180.27 271.80 183.92 267.94 C 188.45 263.37 194.69 260.79 198.58 255.55 C 204.91 247.87 210.28 238.62 210.54 228.42 C 211.12 222.31 212.13 216.15 211.00 210.03 C 209.99 205.00 211.09 199.34 208.12 194.88 C 204.97 189.98 202.90 184.41 199.01 180.01 C 194.95 174.70 189.41 170.86 184.15 166.85 C 179.48 163.54 174.40 160.54 168.76 159.30 C 161.11 157.67 153.23 156.34 145.40 157.47 Z" />
</g>
<g id="#56d191ff">
<path fill="#56d191" opacity="1.00" d=" M 149.39 181.40 C 151.84 180.88 154.89 181.46 156.11 183.89 C 157.81 187.32 157.70 191.62 156.03 195.04 C 153.29 198.58 147.25 197.62 145.27 193.73 C 142.14 189.59 144.24 182.63 149.39 181.40 M 149.41 185.36 C 146.90 186.12 146.46 189.42 147.38 191.55 C 148.41 195.08 154.60 194.54 154.93 190.79 C 156.35 187.37 152.65 184.31 149.41 185.36 Z" />
</g>
<g id="#bce9c8ff">
<path fill="#bce9c8" opacity="1.00" d=" M 149.41 185.36 C 152.65 184.31 156.35 187.37 154.93 190.79 C 154.60 194.54 148.41 195.08 147.38 191.55 C 146.46 189.42 146.90 186.12 149.41 185.36 Z" />
</g>
<g id="#3fca88ff">
<path fill="#3fca88" opacity="1.00" d=" M 148.34 201.12 C 150.63 199.85 153.63 200.93 155.32 202.73 C 157.80 205.89 158.14 210.10 158.32 213.97 C 158.43 220.31 158.19 226.66 158.33 233.00 C 158.32 238.71 158.63 244.75 156.14 250.05 C 154.99 252.63 151.76 253.78 149.13 253.24 C 144.50 251.21 142.95 245.69 142.75 241.05 C 142.45 232.70 142.94 224.34 142.65 215.99 C 142.48 210.64 143.46 204.24 148.34 201.12 M 148.43 204.36 C 145.56 205.58 145.88 209.38 145.63 211.97 C 145.75 220.64 145.66 229.32 145.62 237.99 C 145.73 241.56 145.56 245.41 147.36 248.62 C 148.65 250.73 151.68 251.15 153.59 249.62 C 156.26 248.15 156.04 244.66 156.32 242.05 C 156.42 233.04 156.23 224.02 156.37 215.01 C 156.33 211.90 156.47 208.65 155.27 205.73 C 153.71 203.79 150.64 203.43 148.43 204.36 Z" />
</g>
<g id="#ade2c2ff">
<path fill="#ade2c2" opacity="1.00" d=" M 148.43 204.36 C 150.64 203.43 153.71 203.79 155.27 205.73 C 156.47 208.65 156.33 211.90 156.37 215.01 C 156.23 224.02 156.42 233.04 156.32 242.05 C 156.04 244.66 156.26 248.15 153.59 249.62 C 151.68 251.15 148.65 250.73 147.36 248.62 C 145.56 245.41 145.73 241.56 145.62 237.99 C 145.66 229.32 145.75 220.64 145.63 211.97 C 145.88 209.38 145.56 205.58 148.43 204.36 M 147.78 211.94 C 147.88 219.95 147.84 227.97 147.70 235.99 C 147.78 239.16 147.39 242.49 148.61 245.50 C 149.20 245.71 150.37 246.12 150.96 246.33 C 153.49 245.32 154.43 242.60 154.25 240.06 C 154.13 230.69 154.28 221.32 154.20 211.96 C 154.36 209.69 152.97 207.78 150.98 206.84 C 148.94 207.71 147.52 209.65 147.78 211.94 Z" />
</g>
<g id="#f9f1f0ff">
<path fill="#f9f1f0" opacity="1.00" d=" M 147.78 211.94 C 147.52 209.65 148.94 207.71 150.98 206.84 C 152.97 207.78 154.36 209.69 154.20 211.96 C 154.28 221.32 154.13 230.69 154.25 240.06 C 154.43 242.60 153.49 245.32 150.96 246.33 C 150.37 246.12 149.20 245.71 148.61 245.50 C 147.39 242.49 147.78 239.16 147.70 235.99 C 147.84 227.97 147.88 219.95 147.78 211.94 Z" />
</g>
<g id="#e6e2dfff">
<path fill="#e6e2df" opacity="1.00" d=" M 197.14 286.00 C 200.96 284.71 204.93 283.74 209.00 283.93 C 241.66 284.20 274.33 283.89 307.00 283.91 L 307.00 286.00 L 197.14 286.00 Z" />
</g>
</svg>
